# Blender v2.79 (sub 0) OBJ File: ''
# www.blender.org
mtllib leaf-single.mtl
o Plane
v 3.626482 2.680868 0.434239
v 3.350859 2.680868 0.405826
v 3.044075 2.680868 0.476623
v 2.642901 2.680868 0.712607
v 2.517044 2.680868 0.909261
v 2.312521 2.680868 1.160979
v 2.170933 2.680868 1.617214
v 2.131606 2.680868 1.821736
v 1.958545 2.680868 2.002657
v 1.777630 2.680868 2.152111
v 1.856289 2.680868 2.191443
v 2.123741 2.680868 1.971190
v 2.406917 2.680868 1.947594
v 2.823828 2.680868 1.876797
v 3.177804 2.680868 1.680142
v 3.405917 2.680868 1.436293
v 3.618305 2.680868 1.003654
v 3.681228 2.680868 0.602480
v 3.681228 2.680868 0.492353
vt 0.655850 0.892031
vt 0.455263 0.774039
vt 0.942964 0.628515
vt 0.113084 0.129014
vt 0.022627 0.054287
vt 0.061957 0.034621
vt 0.195682 0.144748
vt 0.337270 0.156546
vt 0.199615 0.219474
vt 0.545726 0.191944
vt 0.219279 0.321736
vt 0.290073 0.549853
vt 0.722714 0.290271
vt 0.392334 0.675712
vt 0.836770 0.412196
vt 0.974426 0.829102
vt 0.809242 0.927430
vt 0.974426 0.884166
vt 0.947053 0.913223
vn 0.0000 1.0000 0.0000
usemtl Material.001
s off
f 3/1/1 4/2/1 17/3/1
f 9/4/1 10/5/1 11/6/1
f 12/7/1 13/8/1 8/9/1
f 13/8/1 14/10/1 7/11/1
f 8/9/1 13/8/1 7/11/1
f 9/4/1 11/6/1 12/7/1
f 6/12/1 7/11/1 14/10/1
f 8/9/1 9/4/1 12/7/1
f 14/10/1 15/13/1 6/12/1
f 6/12/1 15/13/1 5/14/1
f 15/13/1 16/15/1 5/14/1
f 16/15/1 17/3/1 4/2/1
f 5/14/1 16/15/1 4/2/1
f 17/3/1 18/16/1 2/17/1
f 18/16/1 19/18/1 1/19/1
f 2/17/1 18/16/1 1/19/1
f 2/17/1 3/1/1 17/3/1
